<?xml version="1.0" encoding="UTF-8"?>
<svg id="Layer_1" data-name="Layer 1" xmlns="http://www.w3.org/2000/svg" viewBox="0 0 288.91 292.58">
  <defs>
    <style>
      .cls-1 {
        fill: none;
      }

      .cls-1, .cls-2, .cls-3 {
        stroke-width: 0px;
      }

      .cls-2 {
        fill: #f7f3f3;
      }

      .cls-3 {
        fill: #182226;
      }
    </style>
  </defs>
  <path class="cls-1" d="M178.43,124.88c.51-2.49.88-5.1,1.06-7.87.05-1.61.09-3.22.09-4.85,0-1.46-.04-2.92-.08-4.37-.18-2.78-.54-5.39-1.05-7.89.35,4.06.54,8.19.54,12.37s-.2,8.47-.57,12.61Z"/>
  <path class="cls-1" d="M186.35,185.48c-2.68,3.9-5.57,7.56-8.64,10.97l28.46,62.35h23.56l-36.99-73.32h-6.38Z"/>
  <path class="cls-1" d="M139.84,205.09v.37c1.76-1.48,3.46-3.03,5.13-4.66l-.13-.3c-1.62,1.6-3.29,3.13-5,4.59Z"/>
  <path class="cls-1" d="M139.84,221.31v37.49h30.47l-18.49-42.31c-3.87,1.95-7.87,3.56-11.98,4.83Z"/>
  <path class="cls-1" d="M240.5,112.34c0-11.84-3.13-21.36-9.4-28.56-6.27-7.2-14.57-10.8-24.9-10.8h-2.18c.15.29.31.57.45.87,5.28,10.91,7.92,23.74,7.92,38.49s-2.67,27.43-8,38.4c-.16.32-.32.64-.48.96h2.29c10.33,0,18.63-3.6,24.9-10.8,6.27-7.2,9.4-16.72,9.4-28.56Z"/>
  <path class="cls-2" d="M75.11,39.19h82.33C141.03,15.2,116.68,0,89.5,0,40.07,0,0,50.26,0,112.26c0,49.82,25.88,92.05,61.69,106.73V39.19h13.42Z"/>
  <rect class="cls-2" x="92.46" y="72.98" width="11.85" height="78.72"/>
  <path class="cls-2" d="M149.95,72.98h-10.11v78.71h10.09c8.95,0,16.14-3.6,21.57-10.8,3.35-4.45,5.65-9.8,6.93-16.02.37-4.14.57-8.35.57-12.61s-.19-8.31-.54-12.37c-1.28-6.26-3.58-11.65-6.95-16.12-5.43-7.19-12.61-10.79-21.55-10.8Z"/>
  <path class="cls-2" d="M139.84,205.09c1.71-1.46,3.38-2.99,5-4.59l-5-11.44v16.03Z"/>
  <path class="cls-2" d="M92.46,185.48v38.98c4.02-.16,7.98-.66,11.85-1.47v-37.51h-11.85Z"/>
  <path class="cls-3" d="M230.54,181.8c4.53-1.42,8.81-3.24,12.83-5.47,10.97-6.09,19.53-14.63,25.69-25.6,6.15-10.97,9.23-23.77,9.23-38.4s-3.05-27.57-9.14-38.49c-6.1-10.91-14.66-19.42-25.69-25.51-11.03-6.09-23.92-9.14-38.66-9.14h-18.35C170.03,15.2,145.68,0,118.5,0c-4.74,0-9.4.47-13.95,1.36,21.31,4.35,40.1,18.14,53.54,37.83H61.69v253.39h30.77v-107.1h11.85v37.51h0c-.09.03-.19.05-.28.07.09.02.19.03.28.05v69.47h184.6l-58.37-110.77ZM139.84,72.98h10.11c8.94,0,16.12,3.6,21.55,10.8,3.37,4.47,5.68,9.86,6.95,16.12.51,2.49.87,5.11,1.05,7.89.04,1.45.08,2.91.08,4.37,0,1.63-.03,3.24-.09,4.85-.18,2.77-.55,5.38-1.06,7.87-1.28,6.22-3.58,11.57-6.93,16.02-5.43,7.2-12.62,10.8-21.57,10.8h-10.09v-78.71ZM92.46,151.69v-78.72h11.85v78.72h-11.85ZM139.84,189.06l5,11.44.13.3c-1.67,1.62-3.37,3.18-5.13,4.66v-16.4ZM139.84,258.79v-37.49c4.11-1.26,8.11-2.88,11.98-4.83l18.49,42.31h-30.47ZM206.16,258.79l-28.46-62.35c3.07-3.41,5.96-7.07,8.64-10.97h6.38l36.99,73.32h-23.56ZM206.19,151.69h-2.29c.16-.32.33-.63.48-.96,5.33-10.97,8-23.77,8-38.4s-2.64-27.57-7.92-38.49c-.14-.3-.31-.58-.45-.87h2.18c10.33,0,18.63,3.6,24.9,10.8,6.27,7.2,9.4,16.72,9.4,28.56s-3.13,21.36-9.4,28.56c-6.27,7.2-14.57,10.8-24.9,10.8Z"/>
</svg>