<svg xmlns="http://www.w3.org/2000/svg" shape-rendering="geometricPrecision" text-rendering="geometricPrecision" image-rendering="optimizeQuality" fill-rule="evenodd" fill="#F7F3F3" clip-rule="evenodd" viewBox="0 0 419 511.67"><path d="M93 39.4h46.13C141.84 17.18 159.77 0 181.52 0c21.61 0 39.45 16.95 42.33 38.94l46.77.46c2.61 0 4.7 2.1 4.7 4.71v51.84c0 2.61-2.09 4.7-4.7 4.7H93.05c-2.56 0-4.71-2.09-4.71-4.7V44.11A4.644 4.644 0 0 1 93 39.4zm221.97 264.22c57.47 0 104.03 46.58 104.03 104.02 0 57.47-46.59 104.03-104.03 104.03-57.47 0-104.02-46.59-104.02-104.03 0-57.47 46.58-104.02 104.02-104.02zm-53.81 92.4 44.16 42.37v-21.12c25.76-5.18 46.61-1.42 63.47 19.58-2.37-36.89-26.45-60.13-63.47-61.7v-21.5l-44.16 42.37zM41.73 59.28h23.93v24.37H41.73c-4.77 0-9.12 1.97-12.25 5.1-3.14 3.14-5.1 7.48-5.1 12.24v315.52c0 4.75 1.96 9.1 5.1 12.24 3.15 3.15 7.51 5.12 12.25 5.12h142.61c1.69 8.44 4.17 16.6 7.37 24.38H41.73c-11.45 0-21.9-4.71-29.47-12.28C4.72 438.43 0 427.98 0 416.51V100.99c0-11.48 4.7-21.91 12.25-29.46 7.55-7.55 17.99-12.25 29.48-12.25zm297.54 217.35V100.99c0-4.77-1.96-9.11-5.09-12.26a17.36 17.36 0 0 0-12.26-5.08H298V59.28h23.92c11.44 0 21.86 4.71 29.41 12.25 7.61 7.61 12.32 18.04 12.32 29.46V283.6c-7.79-3.07-15.95-5.42-24.38-6.97zm-206.74-8.06c-7.13 0-12.93-5.79-12.93-12.92s5.8-12.93 12.93-12.93h142.82c7.13 0 12.92 5.8 12.92 12.93s-5.79 12.92-12.92 12.92H132.53zM89.5 241.21c7.97 0 14.44 6.47 14.44 14.44 0 7.98-6.47 14.44-14.44 14.44s-14.44-6.46-14.44-14.44c0-7.97 6.47-14.44 14.44-14.44zm0 78.62c7.97 0 14.44 6.47 14.44 14.44 0 7.98-6.47 14.44-14.44 14.44s-14.44-6.46-14.44-14.44c0-7.97 6.47-14.44 14.44-14.44zm43.04 27.36c-7.13 0-12.93-5.79-12.93-12.92s5.8-12.93 12.93-12.93h80.96a133.913 133.913 0 0 0-17.26 25.85h-63.7zM89.5 162.61c7.97 0 14.44 6.46 14.44 14.43 0 7.98-6.47 14.44-14.44 14.44s-14.44-6.46-14.44-14.44c0-7.97 6.47-14.43 14.44-14.43zm43.03 27.35c-7.13 0-12.93-5.79-12.93-12.92 0-7.14 5.8-12.93 12.93-12.93h142.82c7.13 0 12.92 5.79 12.92 12.93 0 7.13-5.79 12.92-12.92 12.92H132.53zm48.5-169.8c12.29 0 22.26 9.96 22.26 22.27 0 12.29-9.97 22.25-22.26 22.25-12.3 0-22.26-9.96-22.26-22.25 0-12.31 9.96-22.27 22.26-22.27z"/></svg>